HIERARCHY
ROOT Hips
{
  OFFSET 53.1446 56.0951 -2.62345
  CHANNELS 6 Xposition Yposition Zposition Zrotation Xrotation Yrotation
  JOINT spine
  {
    OFFSET 0 7.96568 0.458067
    CHANNELS 3 Zrotation Xrotation Yrotation
    JOINT spine1
    {
      OFFSET 0 10.2431 0
      CHANNELS 3 Zrotation Xrotation Yrotation
      JOINT spine2
      {
        OFFSET 0 9.81475 0
        CHANNELS 3 Zrotation Xrotation Yrotation
        JOINT Neck
        {
          OFFSET 0 25.1986 1.20138
          CHANNELS 3 Zrotation Xrotation Yrotation
          JOINT Head
          {
            OFFSET 0 7.61315 0
            CHANNELS 3 Zrotation Xrotation Yrotation
            End Site
            {
              OFFSET 0 18.4281 -6.07733
            }
          }
        }
        JOINT RightShoulder
        {
          OFFSET -4.1327 10.5992 -0.575451
          CHANNELS 3 Zrotation Xrotation Yrotation
          JOINT RightArm
          {
            OFFSET 0 13.9018 0
            CHANNELS 3 Zrotation Xrotation Yrotation
            JOINT RightArmRoll
            {
              OFFSET 0 7.01789 0
              CHANNELS 3 Zrotation Xrotation Yrotation
              JOINT RightForeArm
              {
                OFFSET 0 20.4406 0
                CHANNELS 3 Zrotation Xrotation Yrotation
                JOINT RightForeArmRoll
                {
                  OFFSET 0 7.87516 0
                  CHANNELS 3 Zrotation Xrotation Yrotation
                  JOINT RightHand
                  {
                    OFFSET 0 15.8037 0
                    CHANNELS 3 Zrotation Xrotation Yrotation
                    End Site
                    {
                      OFFSET 0 0 0
                    }
                  }
                }
              }
            }
          }
        }
        JOINT LeftShoulder
        {
          OFFSET 4.1327 10.5992 -0.575451
          CHANNELS 3 Zrotation Xrotation Yrotation
          JOINT LeftArm
          {
            OFFSET 0 13.9018 0
            CHANNELS 3 Zrotation Xrotation Yrotation
            JOINT LeftArmRoll
            {
              OFFSET 0 7.01789 0
              CHANNELS 3 Zrotation Xrotation Yrotation
              JOINT LeftForeArm
              {
                OFFSET 0 20.4406 0
                CHANNELS 3 Zrotation Xrotation Yrotation
                JOINT LeftForeArmRoll
                {
                  OFFSET 0 7.87516 0
                  CHANNELS 3 Zrotation Xrotation Yrotation
                  JOINT LeftHand
                  {
                    OFFSET 0 15.8037 0
                    CHANNELS 3 Zrotation Xrotation Yrotation
                    End Site
                    {
                      OFFSET 0 0 0
                    }
                  }
                }
              }
            }
          }
        }
      }
    }
  }
  JOINT RightUpLeg
  {
    OFFSET -7.06048 -1.2947 -1.0861
    CHANNELS 3 Zrotation Xrotation Yrotation
    JOINT RightUpLegRoll
    {
      OFFSET 0 18.5308 0
      CHANNELS 3 Zrotation Xrotation Yrotation
      JOINT RightLeg
      {
        OFFSET 0 -22.9476 0
        CHANNELS 3 Zrotation Xrotation Yrotation
        JOINT RightLegRoll
        {
          OFFSET 0 23.0226 0
          CHANNELS 3 Zrotation Xrotation Yrotation
          JOINT RightFoot
          {
            OFFSET 0 19.1625 0
            CHANNELS 3 Zrotation Xrotation Yrotation
            JOINT RightToeBase
            {
              OFFSET 0 16.0188 0
              CHANNELS 3 Zrotation Xrotation Yrotation
              End Site
              {
                OFFSET 0.00678979 7.75782 -0.894206
              }
            }
          }
        }
      }
    }
  }
  JOINT LeftUpLeg
  {
    OFFSET 7.06048 -1.2947 -1.0861
    CHANNELS 3 Zrotation Xrotation Yrotation
    JOINT LeftUpLegRoll
    {
      OFFSET 0 18.5309 0
      CHANNELS 3 Zrotation Xrotation Yrotation
      JOINT LeftLeg
      {
        OFFSET 0 22.9475 0
        CHANNELS 3 Zrotation Xrotation Yrotation
        JOINT LeftLegRoll
        {
          OFFSET 0 23.2355 0
          CHANNELS 3 Zrotation Xrotation Yrotation
          JOINT LeftFoot
          {
            OFFSET 0 18.9496 0
            CHANNELS 3 Zrotation Xrotation Yrotation
            JOINT LeftToeBase
            {
              OFFSET 0 16.0188 0
              CHANNELS 3 Zrotation Xrotation Yrotation
              End Site
              {
                OFFSET -0.0304289 7.75782 -0.894207
              }
            }
          }
        }
      }
    }
  }
}
MOTION
Frames: 4
Frame Time: 0.00208333
52.8509 55.1646 -3.57086 0.763302 -15.8499 -2.80022 0.409592 5.14341 -0.615478 0.899614 14.2845 -1.32999 0.920353 15.9293 -1.3501 -16.1963 6.92487 2.1317 11.5272 11.5199 -1.39744 53.6387 -2.71742 -1.1953 118.335 37.7399 -34.1396 -4.59674e-006 1.738e-006 9.3388e-007 22.7591 59.5218 -16.7908 3.19022e-006 -1.14987e-005 -2.99999 8.02928 -4.95144 0.69767 -61.4219 -3.10266 2.14908 -93.9742 19.3487 47.264 2.38035e-006 -2.89455e-007 1.17667e-006 -73.2761 84.5548 77.2897 2.08654e-005 -3.65538e-006 3 -8.02898 -4.95147 -0.6977 162.793 73.3685 19.8148 180 7.01238e-015 177.987 -30.2064 77.1866 33.5038 -7.77421e-007 -2.57607e-006 2.69624 -20.9399 70.0849 21.4737 8.17274 27.0265 -1.27078 -144.203 70.628 -35.1497 4.5067e-006 -1.99009e-005 -1.78867 153.931 -76.3489 150.728 5.07691e-006 2.71053e-007 -3.32251 19.8784 68.7578 -20.195 -8.155 27.6748 0.320984 
52.8536 55.1611 -3.57538 0.751635 -15.972 -2.82453 0.405962 5.14516 -0.611794 0.891913 14.2881 -1.32023 0.912497 15.9329 -1.34017 -16.1323 6.98788 2.15123 11.4968 11.5593 -1.37582 53.662 -2.70947 -1.19217 118.352 37.7825 -34.1204 -4.59674e-006 1.738e-006 9.3388e-007 22.7479 59.348 -16.7223 3.19022e-006 -1.14987e-005 -2.99999 8.02928 -4.95144 0.69767 -61.4106 -3.09995 2.14653 -93.9862 19.367 47.2073 2.38035e-006 -2.89455e-007 1.17667e-006 -72.5982 84.4889 76.5471 2.08654e-005 -3.65538e-006 3 -8.02898 -4.95147 -0.6977 163.005 73.2558 19.604 180 7.01237e-015 177.984 -30.2926 77.2015 33.5929 -7.77421e-007 -2.57607e-006 2.69567 -20.9276 70.0683 21.4578 8.17246 27.0188 -1.26638 -144.337 70.5059 -35.0095 4.5067e-006 -1.99009e-005 -1.79081 153.882 -76.3636 150.679 5.07691e-006 2.71053e-007 -3.32204 19.8705 68.7475 -20.1845 -8.15513 27.6736 0.321449 
52.8726 55.1826 -3.59084 0.740363 -16.0933 -2.84861 0.40218 5.1468 -0.608093 0.883854 14.2914 -1.31032 0.904278 15.9363 -1.33009 -16.0669 7.05097 2.16965 11.4651 11.5986 -1.35499 53.6863 -2.70168 -1.18926 118.367 37.8245 -34.101 -4.59674e-006 1.738e-006 9.3388e-007 22.7372 59.1745 -16.6545 3.19022e-006 -1.14987e-005 -2.99999 8.02928 -4.95144 0.69767 -61.3985 -3.09691 2.14371 -93.9991 19.3843 47.1494 2.38035e-006 -2.89455e-007 1.17667e-006 -71.9361 84.4227 75.8209 2.08654e-005 -3.65538e-006 3 -8.02898 -4.95147 -0.6977 163.21 73.1437 19.399 180 7.01235e-015 177.981 -30.3786 77.2161 33.6817 -7.77421e-007 -2.57607e-006 2.69509 -20.9152 70.0517 21.4419 8.1722 27.0115 -1.26219 -144.468 70.3846 -34.872 4.5067e-006 -1.99009e-005 -1.79293 153.833 -76.3781 150.631 5.07691e-006 2.71053e-007 -3.3216 19.8625 68.737 -20.1738 -8.15525 27.6724 0.321828 
52.8647 55.1798 -3.60451 0.729506 -16.2139 -2.87247 0.398289 5.14837 -0.604369 0.875529 14.2947 -1.3003 0.895791 15.9395 -1.3199 -16.0012 7.11355 2.18706 11.4331 11.6383 -1.33513 53.711 -2.6941 -1.18653 118.381 37.8658 -34.0814 -4.59674e-006 1.738e-006 9.3388e-007 22.7269 59.0016 -16.5873 3.19022e-006 -1.14987e-005 -2.99999 8.02928 -4.95144 0.69767 -61.386 -3.09374 2.14079 -94.0129 19.4007 47.0902 2.38035e-006 -2.89455e-007 1.17667e-006 -71.2892 84.356 75.1102 2.08654e-005 -3.65538e-006 3 -8.02898 -4.95147 -0.6977 163.41 73.0321 19.1998 180 7.01234e-015 177.977 -30.4641 77.2305 33.77 -7.77421e-007 -2.57607e-006 2.69447 -20.9028 70.035 21.426 8.17197 27.0047 -1.25827 -144.597 70.2638 -34.7369 4.5067e-006 -1.99009e-005 -1.79505 153.784 -76.3925 150.584 5.07691e-006 2.71053e-007 -3.32118 19.8545 68.7267 -20.1632 -8.15536 27.6712 0.32218 
